<svg width="254" height="100" viewBox="0 0 254 100" fill="none" xmlns="http://www.w3.org/2000/svg">
<path d="M76.6671 78.2609C76.0784 78.2609 75.5965 78.0749 75.2218 77.7029C74.9007 77.3309 74.7402 76.8793 74.7402 76.3478V71.8043C74.7402 71.3261 74.8471 70.8744 75.0612 70.4493C75.3288 69.971 75.5967 69.5725 75.8643 69.2536L96.4177 45.1015H77.3093C76.774 45.1015 76.3193 44.942 75.9445 44.6232C75.5698 44.2512 75.3824 43.7729 75.3824 43.1884V38.7246C75.3824 38.1932 75.5698 37.7416 75.9445 37.3696C76.3193 36.9975 76.774 36.8116 77.3093 36.8116H107.738C108.327 36.8116 108.782 36.9975 109.103 37.3696C109.478 37.7416 109.665 38.1932 109.665 38.7246V43.587C109.665 44.0652 109.558 44.4903 109.344 44.8623C109.13 45.2344 108.862 45.6329 108.541 46.058L88.4692 69.971H109.424C109.96 69.971 110.414 70.157 110.789 70.529C111.164 70.8478 111.351 71.2996 111.351 71.8841V76.3478C111.351 76.8793 111.164 77.3309 110.789 77.7029C110.414 78.0749 109.96 78.2609 109.424 78.2609H76.6671ZM131.604 79.058C128.82 79.058 126.305 78.5265 124.057 77.4638C121.809 76.3478 120.015 74.8865 118.677 73.0797C117.393 71.2199 116.751 69.1474 116.751 66.8623C116.751 63.1425 118.249 60.1932 121.247 58.0145C124.298 55.7826 128.312 54.2946 133.29 53.5507L144.289 51.9565V50.2826C144.289 48.0507 143.727 46.3236 142.603 45.1015C141.479 43.8793 139.552 43.2681 136.822 43.2681C134.895 43.2681 133.317 43.6667 132.086 44.4638C130.908 45.2077 130.025 46.2174 129.436 47.4928C129.008 48.1836 128.392 48.529 127.589 48.529H121.247C120.658 48.529 120.203 48.3696 119.882 48.0507C119.614 47.7319 119.48 47.3068 119.48 46.7754C119.534 45.9251 119.882 44.8888 120.524 43.6667C121.166 42.4445 122.183 41.2754 123.575 40.1594C124.967 38.9903 126.76 38.0073 128.954 37.2101C131.149 36.413 133.798 36.0145 136.903 36.0145C140.275 36.0145 143.112 36.4396 145.413 37.2899C147.768 38.087 149.641 39.1764 151.034 40.558C152.425 41.9396 153.442 43.5604 154.085 45.4203C154.727 47.2801 155.048 49.2464 155.048 51.3188V76.3478C155.048 76.8793 154.86 77.3309 154.486 77.7029C154.111 78.0749 153.655 78.2609 153.121 78.2609H146.618C146.028 78.2609 145.547 78.0749 145.172 77.7029C144.851 77.3309 144.691 76.8793 144.691 76.3478V73.2391C143.995 74.2488 143.058 75.2054 141.881 76.1087C140.703 76.959 139.258 77.6764 137.545 78.2609C135.886 78.7923 133.905 79.058 131.604 79.058ZM134.334 71.4855C136.207 71.4855 137.893 71.087 139.392 70.2899C140.944 69.4928 142.148 68.2706 143.004 66.6232C143.914 64.9228 144.37 62.7971 144.37 60.2464V58.5725L136.341 59.8478C133.183 60.3261 130.828 61.0967 129.275 62.1594C127.723 63.2222 126.947 64.5242 126.947 66.0652C126.947 67.2344 127.295 68.2439 127.991 69.0942C128.74 69.8913 129.677 70.5025 130.801 70.9275C131.925 71.2996 133.102 71.4855 134.334 71.4855ZM167.275 78.2609C166.739 78.2609 166.284 78.0749 165.91 77.7029C165.535 77.3309 165.348 76.8793 165.348 76.3478V38.8044C165.348 38.2199 165.535 37.7416 165.91 37.3696C166.284 36.9975 166.739 36.8116 167.275 36.8116H173.778C174.313 36.8116 174.768 36.9975 175.143 37.3696C175.571 37.7416 175.786 38.2199 175.786 38.8044V42.0725C177.016 40.372 178.596 39.07 180.522 38.1667C182.502 37.2633 184.778 36.8116 187.347 36.8116H190.639C191.227 36.8116 191.682 36.9975 192.004 37.3696C192.377 37.7416 192.566 38.1932 192.566 38.7246V44.4638C192.566 44.9952 192.377 45.4468 192.004 45.8188C191.682 46.1909 191.227 46.3768 190.639 46.3768H184.376C181.807 46.3768 179.8 47.0942 178.355 48.529C176.962 49.9638 176.267 51.93 176.267 54.4275V76.3478C176.267 76.8793 176.079 77.3309 175.705 77.7029C175.33 78.0749 174.848 78.2609 174.26 78.2609H167.275ZM217.694 78.2609C214.483 78.2609 211.781 77.7029 209.585 76.587C207.391 75.471 205.759 73.8236 204.688 71.6449C203.618 69.4131 203.082 66.6497 203.082 63.3551V45.2609H196.739C196.205 45.2609 195.749 45.0749 195.374 44.7029C195 44.3309 194.812 43.8793 194.812 43.3478V38.7246C194.812 38.1932 195 37.7416 195.374 37.3696C195.749 36.9975 196.205 36.8116 196.739 36.8116H203.082V23.5797C203.082 23.0483 203.242 22.5967 203.564 22.2246C203.939 21.8526 204.42 21.6667 205.009 21.6667H211.512C212.048 21.6667 212.503 21.8526 212.877 22.2246C213.252 22.5967 213.439 23.0483 213.439 23.5797V36.8116H223.475C224.011 36.8116 224.466 36.9975 224.84 37.3696C225.215 37.7416 225.402 38.1932 225.402 38.7246V43.3478C225.402 43.8793 225.215 44.3309 224.84 44.7029C224.466 45.0749 224.011 45.2609 223.475 45.2609H213.439V62.558C213.439 64.7367 213.814 66.4373 214.563 67.6594C215.366 68.8816 216.731 69.4928 218.658 69.4928H224.197C224.733 69.4928 225.189 69.6787 225.562 70.0507C225.937 70.4228 226.124 70.8744 226.124 71.4058V76.3478C226.124 76.8793 225.937 77.3309 225.562 77.7029C225.189 78.0749 224.733 78.2609 224.197 78.2609H217.694Z" fill="white"/>
<path d="M241.99 78.7987C240.433 78.7987 239.093 78.2514 237.972 77.157C236.849 76.0436 236.289 74.7038 236.289 73.1374C236.289 71.59 236.849 70.2691 237.972 69.1746C239.093 68.0612 240.433 67.5045 241.99 67.5045C243.549 67.5045 244.89 68.0612 246.011 69.1746C247.133 70.2691 247.694 71.59 247.694 73.1374C247.694 74.1754 247.427 75.1283 246.895 75.9964C246.381 76.8455 245.697 77.5249 244.843 78.0343C243.987 78.5439 243.037 78.7987 241.99 78.7987Z" fill="white"/>
<path d="M36.4942 81.1594C30.4177 81.1594 24.9374 79.7706 20.0534 76.9928C15.1695 74.1546 11.3361 70.2597 8.5534 65.308C5.77067 60.2959 4.3793 54.7101 4.3793 48.5507C4.3793 42.3913 5.77067 36.8358 8.5534 31.8841C11.3361 26.872 15.1695 22.9771 20.0534 20.1993C24.9374 17.3612 30.4177 15.942 36.4942 15.942C42.5708 15.942 48.0511 17.3612 52.9351 20.1993C57.819 22.9771 61.6524 26.8417 64.4351 31.7935C67.2179 36.7452 68.6092 42.3309 68.6092 48.5507C68.6092 54.7706 67.2179 60.3562 64.4351 65.308C61.6524 70.2597 57.819 74.1546 52.9351 76.9928C48.0511 79.7706 42.5708 81.1594 36.4942 81.1594ZM36.4942 70.8333C40.4696 70.8333 44.0474 69.8974 47.2276 68.0254C50.4079 66.093 52.9067 63.4359 54.724 60.0544C56.5411 56.6123 57.4498 52.7778 57.4498 48.5507C57.4498 44.3236 56.5411 40.5193 54.724 37.1377C52.9067 33.6957 50.4079 31.0387 47.2276 29.1667C44.0474 27.2344 40.4696 26.2681 36.4942 26.2681C32.5189 26.2681 28.9411 27.2344 25.7608 29.1667C22.5806 31.0387 20.0818 33.6957 18.2645 37.1377C16.4474 40.5193 15.5387 44.3236 15.5387 48.5507C15.5387 52.7778 16.4474 56.6123 18.2645 60.0544C20.0818 63.4359 22.5806 66.093 25.7608 68.0254C28.9411 69.8974 32.5189 70.8333 36.4942 70.8333Z" fill="white"/>
<path d="M37.2241 5.7971V92.7536" stroke="white" stroke-width="5"/>
</svg>
